#Comment line ignore any data following # character 
#Hierarchical Translation and Rotation (.htr) file 
[Header]	
#Header keywords are followed by a single value 
FileType HTR		#Single word string
DataType HTRS		#Translation followed by rotation and scale data
FileVersion 1		#integer
NumSegments 64		#integer
NumFrames 3		#integer
DataFrameRate 30		#integer, data frame rate in this file
EulerRotationOrder ZYX
CalibrationUnits mm
RotationUnits Degrees
GlobalAxisofGravity Y
BoneLengthAxis Y
ScaleFactor 1.00
[SegmentNames&Hierarchy]
#CHILD	PARENT
Pinger_Root GLOBAL
Pelvis Pinger_Root
L_Hip Pelvis
R_Hip Pelvis
Rear_Leg01 Pelvis
Spine1 Pelvis
L_Leg01 L_Hip
L_Leg02 L_Leg01
L_Leg03 L_Leg02
L_Foot L_Leg03
L_Toe1_01 L_Foot
L_Toe2_01 L_Foot
L_Toe3_01 L_Foot
planeAlignerLeft L_Foot
L_Toe1_02 L_Toe1_01
L_Toe1_03 L_Toe1_02
L_Toe2_02 L_Toe2_01
L_Toe2_03 L_Toe2_02
L_Toe3_02 L_Toe3_01
L_Toe3_03 L_Toe3_02
planeLockWeightLeft planeAlignerLeft
R_Leg01 R_Hip
R_Leg02 R_Leg01
R_Leg03 R_Leg02
R_Foot R_Leg03
planeAlignerRight R_Foot
R_Toe1_01 R_Foot
R_Toe2_01 R_Foot
R_Toe3_01 R_Foot
planeLockWeightRight planeAlignerRight
R_Toe1_02 R_Toe1_01
R_Toe1_03 R_Toe1_02
R_Toe2_02 R_Toe2_01
R_Toe2_03 R_Toe2_02
R_Toe3_02 R_Toe3_01
R_Toe3_03 R_Toe3_02
Rear_Leg02 Rear_Leg01
Rear_Leg03 Rear_Leg02
Rear_Leg04 Rear_Leg03
Rear_Foot Rear_Leg04
planeAlignerCenter Rear_Foot
Rear_Toe1_01 Rear_Foot
Rear_Toe2_01 Rear_Foot
Rear_Toe3_01 Rear_Foot
planeLockWeightCenter planeAlignerCenter
Rear_Toe1_02 Rear_Toe1_01
Rear_Toe1_03 Rear_Toe1_02
Rear_Toe2_02 Rear_Toe2_01
Rear_Toe2_03 Rear_Toe2_02
Rear_Toe3_02 Rear_Toe3_01
Rear_Toe3_03 Rear_Toe3_02
Back_Bone Spine1
Head Spine1
Motor_Bone Back_Bone
Ping_Mechanism Back_Bone
BN_LookIK Head
bottomMouth Head
L_Mouth01 Head
L_mouthFront Head
mouthGun Head
R_Mouth01 Head
R_mouthFront Head
TopMouth Head
weapon_bone Head
[BasePosition]
#SegmentName Tx, Ty, Tz, Rx, Ry, Rz, BoneLength
Pinger_Root 0.000000 0.000000 0.000000 -90.000000 0.000000 0.000000 10.000000 
Pelvis 0.000000 0.000000 0.000000 0.000000 0.000000 0.000000 10.000000 
L_Hip 0.000000 0.000000 0.000000 0.000000 0.000000 0.000000 10.000000 
R_Hip 0.000000 0.000000 0.000000 0.000000 0.000000 0.000000 10.000000 
Rear_Leg01 0.000000 0.000000 0.000000 0.000000 0.000000 0.000000 10.000000 
Spine1 0.000000 0.000000 0.000000 0.000000 0.000000 0.000000 10.000000 
L_Leg01 0.000000 0.000000 0.000000 0.000000 0.000000 0.000000 10.000000 
L_Leg02 0.000000 0.000000 0.000000 0.000000 0.000000 0.000000 10.000000 
L_Leg03 0.000000 0.000000 0.000000 0.000000 0.000000 0.000000 10.000000 
L_Foot 0.000000 0.000000 0.000000 0.000000 0.000000 0.000000 10.000000 
L_Toe1_01 0.000000 0.000000 0.000000 0.000000 0.000000 0.000000 10.000000 
L_Toe2_01 0.000000 0.000000 0.000000 0.000000 0.000000 0.000000 10.000000 
L_Toe3_01 0.000000 0.000000 0.000000 0.000000 0.000000 0.000000 10.000000 
planeAlignerLeft 0.000000 0.000000 0.000000 0.000000 0.000000 0.000000 10.000000 
L_Toe1_02 0.000000 0.000000 0.000000 0.000000 0.000000 0.000000 10.000000 
L_Toe1_03 0.000000 0.000000 0.000000 0.000000 0.000000 0.000000 10.000000 
L_Toe2_02 0.000000 0.000000 0.000000 0.000000 0.000000 0.000000 10.000000 
L_Toe2_03 0.000000 0.000000 0.000000 0.000000 0.000000 0.000000 10.000000 
L_Toe3_02 0.000000 0.000000 0.000000 0.000000 0.000000 0.000000 10.000000 
L_Toe3_03 0.000000 0.000000 0.000000 0.000000 0.000000 0.000000 10.000000 
planeLockWeightLeft 0.000000 0.000000 0.000000 0.000000 0.000000 0.000000 10.000000 
R_Leg01 0.000000 0.000000 0.000000 0.000000 0.000000 0.000000 10.000000 
R_Leg02 0.000000 0.000000 0.000000 0.000000 0.000000 0.000000 10.000000 
R_Leg03 0.000000 0.000000 0.000000 0.000000 0.000000 0.000000 10.000000 
R_Foot 0.000000 0.000000 0.000000 0.000000 0.000000 0.000000 10.000000 
planeAlignerRight 0.000000 0.000000 0.000000 0.000000 0.000000 0.000000 10.000000 
R_Toe1_01 0.000000 0.000000 0.000000 0.000000 0.000000 0.000000 10.000000 
R_Toe2_01 0.000000 0.000000 0.000000 0.000000 0.000000 0.000000 10.000000 
R_Toe3_01 0.000000 0.000000 0.000000 0.000000 0.000000 0.000000 10.000000 
planeLockWeightRight 0.000000 0.000000 0.000000 0.000000 0.000000 0.000000 10.000000 
R_Toe1_02 0.000000 0.000000 0.000000 0.000000 0.000000 0.000000 10.000000 
R_Toe1_03 0.000000 0.000000 0.000000 0.000000 0.000000 0.000000 10.000000 
R_Toe2_02 0.000000 0.000000 0.000000 0.000000 0.000000 0.000000 10.000000 
R_Toe2_03 0.000000 0.000000 0.000000 0.000000 0.000000 0.000000 10.000000 
R_Toe3_02 0.000000 0.000000 0.000000 0.000000 0.000000 0.000000 10.000000 
R_Toe3_03 0.000000 0.000000 0.000000 0.000000 0.000000 0.000000 10.000000 
Rear_Leg02 0.000000 0.000000 0.000000 0.000000 0.000000 0.000000 10.000000 
Rear_Leg03 0.000000 0.000000 0.000000 0.000000 0.000000 0.000000 10.000000 
Rear_Leg04 0.000000 0.000000 0.000000 0.000000 0.000000 0.000000 10.000000 
Rear_Foot 0.000000 0.000000 0.000000 0.000000 0.000000 0.000000 10.000000 
planeAlignerCenter 0.000000 0.000000 0.000000 0.000000 0.000000 0.000000 10.000000 
Rear_Toe1_01 0.000000 0.000000 0.000000 0.000000 0.000000 0.000000 10.000000 
Rear_Toe2_01 0.000000 0.000000 0.000000 0.000000 0.000000 0.000000 10.000000 
Rear_Toe3_01 0.000000 0.000000 0.000000 0.000000 0.000000 0.000000 10.000000 
planeLockWeightCenter 0.000000 0.000000 0.000000 0.000000 0.000000 0.000000 10.000000 
Rear_Toe1_02 0.000000 0.000000 0.000000 0.000000 0.000000 0.000000 10.000000 
Rear_Toe1_03 0.000000 0.000000 0.000000 0.000000 0.000000 0.000000 10.000000 
Rear_Toe2_02 0.000000 0.000000 0.000000 0.000000 0.000000 0.000000 10.000000 
Rear_Toe2_03 0.000000 0.000000 0.000000 0.000000 0.000000 0.000000 10.000000 
Rear_Toe3_02 0.000000 0.000000 0.000000 0.000000 0.000000 0.000000 10.000000 
Rear_Toe3_03 0.000000 0.000000 0.000000 0.000000 0.000000 0.000000 10.000000 
Back_Bone 0.000000 0.000000 0.000000 0.000000 0.000000 0.000000 10.000000 
Head 0.000000 0.000000 0.000000 0.000000 0.000000 0.000000 10.000000 
Motor_Bone 0.000000 0.000000 0.000000 0.000000 0.000000 0.000000 10.000000 
Ping_Mechanism 0.000000 0.000000 0.000000 0.000000 0.000000 0.000000 10.000000 
BN_LookIK 0.000000 0.000000 0.000000 0.000000 0.000000 0.000000 10.000000 
bottomMouth 0.000000 0.000000 0.000000 0.000000 0.000000 0.000000 10.000000 
L_Mouth01 0.000000 0.000000 0.000000 0.000000 0.000000 0.000000 10.000000 
L_mouthFront 0.000000 0.000000 0.000000 0.000000 0.000000 0.000000 10.000000 
mouthGun 0.000000 0.000000 0.000000 0.000000 0.000000 0.000000 10.000000 
R_Mouth01 0.000000 0.000000 0.000000 0.000000 0.000000 0.000000 10.000000 
R_mouthFront 0.000000 0.000000 0.000000 0.000000 0.000000 0.000000 10.000000 
TopMouth 0.000000 0.000000 0.000000 0.000000 0.000000 0.000000 10.000000 
weapon_bone 0.000000 0.000000 0.000000 0.000000 0.000000 0.000000 10.000000 
#Beginning of Data. Separated by tabs
#Fr	Tx	Ty	Tz	Rx	Ry	Rz	SF
[Pinger_Root]
1 0.000000 0.000000 0.000000 -0.000075 -0.000000 -0.000020 0.000000
2 73.411224 0.000006 0.000000 -0.000075 -0.000000 -0.000020 73.411224
3 150.553940 0.000013 0.000000 -0.000075 -0.000000 -0.000020 150.553940
[Pelvis]
1 646.244812 -186.352478 5059.363770 -102.029648 -77.099983 47.786884 5103.873047
2 643.575439 -52.082611 5059.147949 -103.002182 -78.602524 48.841228 5100.184082
3 637.644775 76.525322 5058.338867 -106.641602 -82.390808 52.700386 5098.944824
[L_Hip]
1 5.766392 125.831482 872.656799 -178.253311 -81.787758 87.381340 881.701050
2 5.766392 125.831482 872.656799 -178.253326 -81.787712 87.381294 881.701050
3 5.766392 125.831482 872.656799 -178.253296 -81.787758 87.381302 881.701050
[R_Hip]
1 5.765438 125.836372 -872.654907 -1.746690 81.787712 87.381248 881.699829
2 5.765438 125.836372 -872.654907 -1.746702 81.787712 87.381203 881.699829
3 5.765438 125.836372 -872.654907 -1.746714 81.787712 87.381248 881.699829
[Rear_Leg01]
1 -192.298416 -925.602966 -0.001907 165.767944 -21.083143 -155.165070 945.367432
2 -192.298416 -925.602966 -0.001907 167.242706 -14.026129 -160.266205 945.367432
3 -192.298416 -925.602966 -0.001907 165.843231 -5.018092 -161.168900 945.367432
[Spine1]
1 290.604584 5.007505 0.000477 42.188213 -17.627220 9.321889 290.647736
2 290.604584 5.007505 0.000477 42.113575 -17.651367 10.908048 290.647736
3 290.604584 5.007505 0.000477 41.874821 -17.747011 14.947070 290.647736
[L_Leg01]
1 761.932007 -0.002384 -0.069261 53.289398 -39.355782 -62.337723 761.932068
2 761.932007 -0.002384 -0.069261 54.299877 -38.376781 -63.334679 761.932068
3 761.932007 -0.002384 -0.069261 56.164219 -36.294064 -64.958420 761.932068
[L_Leg02]
1 1441.140503 -0.000954 -0.000715 -1.484848 0.460806 -95.323013 1441.140503
2 1441.140503 -0.000954 -0.000715 -1.427974 0.458660 -99.040451 1441.140503
3 1441.140503 -0.000954 -0.000715 -1.371079 0.460206 -102.757866 1441.140503
[L_Leg03]
1 1686.963989 -0.000715 -0.000954 0.026242 -0.006568 103.248306 1686.963989
2 1686.963989 -0.000715 -0.000954 0.026207 -0.006703 103.840103 1686.963989
3 1686.963989 -0.000715 -0.000954 0.026255 -0.006513 103.008369 1686.963989
[L_Foot]
1 3041.570068 -30.715107 11.297464 -5.342190 15.125804 45.813915 3041.746094
2 3041.570068 -30.715107 11.297464 -5.117627 15.379160 48.735031 3041.746094
3 3041.570068 -30.715107 11.297464 -4.871198 15.655092 52.110291 3041.746094
[L_Toe1_01]
1 -188.216690 -224.732346 -21.137953 89.699341 -3.378355 -165.452560 293.899567
2 -188.216690 -224.732346 -21.137953 89.712097 -3.436440 -165.434937 293.899567
3 -188.216690 -224.732346 -21.137953 89.724831 -3.494528 -165.417328 293.899567
[L_Toe2_01]
1 200.746536 -219.926590 148.838394 -77.584976 -14.474025 -44.187046 332.896027
2 200.746536 -219.926590 148.838394 -77.565712 -14.420163 -44.299782 332.896027
3 200.746536 -219.926590 148.838394 -77.546547 -14.366260 -44.412472 332.896027
[L_Toe3_01]
1 188.832520 -219.859131 -191.078659 -105.094337 14.710049 -44.951870 347.140900
2 188.832520 -219.859131 -191.078659 -105.055313 14.347095 -45.080677 347.140900
3 188.832520 -219.859131 -191.078659 -105.134552 14.542623 -45.196140 347.140900
[planeAlignerLeft]
1 -11.900329 -606.274414 27.254942 0.000000 -90.000000 -90.001633 607.003418
2 -5.175934 -607.898132 30.326233 0.000000 -90.000000 -90.004288 608.676086
3 -7.424622 -609.161804 28.413544 0.000000 -90.000000 -90.006950 609.869324
[L_Toe1_02]
1 413.761139 0.000477 0.000000 0.001412 -22.421448 0.001412 413.761139
2 413.761139 0.000477 0.000000 0.001412 -22.418085 0.001412 413.761139
3 413.761139 0.000477 0.000000 0.001412 -22.414724 0.001412 413.761139
[L_Toe1_03]
1 464.317322 0.000358 -0.000089 0.015052 81.056046 0.015052 464.317322
2 464.317322 0.000358 -0.000089 0.016627 81.904610 0.016627 464.317322
3 464.317322 0.000358 -0.000089 0.015842 81.503143 0.015842 464.317322
[L_Toe2_02]
1 342.235809 -0.000477 0.000238 0.001180 -77.741257 0.001180 342.235809
2 342.235809 -0.000477 0.000238 0.001181 -77.601677 0.001181 342.235809
3 342.235809 -0.000477 0.000238 0.001181 -77.462029 0.001181 342.235809
[L_Toe2_03]
1 420.210846 -0.000715 0.000000 -179.996613 77.155922 -179.993103 420.210846
2 420.210846 -0.000715 0.000000 -179.996063 78.414101 -179.992554 420.210846
3 420.210846 -0.000715 0.000000 -179.996109 78.324768 -179.992584 420.210846
[L_Toe3_02]
1 329.270111 0.000954 0.000000 0.001177 -81.880569 0.001177 329.270111
2 329.270111 0.000954 0.000000 0.001177 -81.864220 0.001177 329.270111
3 329.270111 0.000954 0.000000 0.001177 -81.847847 0.001177 329.270111
[L_Toe3_03]
1 439.137451 -0.001907 0.000954 -179.997986 72.516495 -179.994446 439.137451
2 439.137451 -0.001907 0.000954 -179.997787 73.371346 -179.994263 439.137451
3 439.137451 -0.001907 0.000954 -179.997818 73.278946 -179.994278 439.137451
[planeLockWeightLeft]
1 1000.000610 -0.000153 -0.000057 -0.011826 -0.004376 0.005620 1000.000610
2 1000.000610 -0.000141 -0.000066 -0.011826 -0.004376 0.005620 1000.000610
3 1000.000610 -0.000129 -0.000075 -0.011826 -0.004376 0.005620 1000.000610
[R_Leg01]
1 761.455627 -0.001907 -0.000358 92.660767 -11.174006 95.294151 761.455688
2 761.455627 -0.001907 -0.000358 93.137810 -7.715988 94.641792 761.455688
3 761.455627 -0.001907 -0.000358 93.713921 -1.225535 94.268860 761.455688
[R_Leg02]
1 1441.140625 0.000000 -0.000238 0.179191 -0.029073 -93.044296 1441.140625
2 1441.140625 0.000000 -0.000238 0.181830 -0.018848 -89.867348 1441.140625
3 1441.140625 0.000000 -0.000238 0.186966 -0.010755 -85.190140 1441.140625
[R_Leg03]
1 1686.963989 0.000954 0.001431 -0.085529 0.015134 86.844391 1686.963989
2 1686.963989 0.000954 0.001431 -0.096402 0.012357 83.872231 1686.963989
3 1686.963989 0.000954 0.001431 -0.107118 0.009019 80.900063 1686.963989
[R_Foot]
1 3041.560059 -30.531288 -11.204481 -4.034905 -20.427847 98.665222 3041.734131
2 3041.560059 -30.531288 -11.204481 -3.149550 -20.291374 99.957489 3041.734131
3 3041.560059 -30.531288 -11.204481 -2.404876 -20.270769 100.741287 3041.734131
[planeAlignerRight]
1 -0.895996 -688.307373 0.704651 0.000000 -89.951546 -90.004936 688.308289
2 -8.252258 -664.656738 5.092621 0.000000 -89.944046 -90.006844 664.727478
3 -26.039429 -620.738281 15.164337 0.000000 -89.955765 -90.008751 621.469238
[R_Toe1_01]
1 -188.383347 -224.864899 21.052242 90.712814 1.939781 -159.560638 294.101532
2 -188.383347 -224.864899 21.052242 90.701401 1.720044 -161.167221 294.101532
3 -188.383347 -224.864899 21.052242 90.698975 1.204473 -163.899643 294.101532
[R_Toe2_01]
1 200.637817 -220.002121 -148.787384 -103.219139 11.336223 -50.088669 332.857574
2 200.637817 -220.002121 -148.787384 -102.803520 11.652453 -48.187523 332.857574
3 200.637817 -220.002121 -148.787384 -101.946815 12.196300 -44.386559 332.857574
[R_Toe3_01]
1 188.606735 -220.092957 191.126343 -72.751450 -14.068009 -51.991619 347.192566
2 188.606735 -220.092957 191.126343 -73.077599 -14.996821 -50.265358 347.192566
3 188.606735 -220.092957 191.126343 -73.734619 -16.972662 -46.912853 347.192566
[planeLockWeightRight]
1 999.999695 0.000305 -0.000191 -0.011823 -0.004379 -0.000027 999.999695
2 999.999695 0.000305 -0.000191 -0.011823 -0.004379 -0.000027 999.999695
3 999.999695 0.000305 -0.000191 -0.011823 -0.004379 -0.000027 999.999695
[R_Toe1_02]
1 413.762085 0.000477 -0.000119 0.001404 -23.390312 0.001404 413.762085
2 413.762085 0.000477 -0.000119 0.001406 -23.228745 0.001406 413.762085
3 413.762085 0.000477 -0.000119 0.001407 -23.067175 0.001407 413.762085
[R_Toe1_03]
1 464.317810 0.000000 0.001088 0.010092 76.644417 0.010092 464.317810
2 464.317810 0.000000 0.001088 0.010735 77.446342 0.010735 464.317810
3 464.317810 0.000000 0.001088 0.011464 78.248245 0.011464 464.317810
[R_Toe2_02]
1 342.234741 -0.000954 0.000238 -0.002342 -75.472374 -0.002342 342.234741
2 342.234741 -0.000954 0.000238 -0.002339 -76.476379 -0.002339 342.234741
3 342.234741 -0.000954 0.000238 -0.002336 -78.148361 -0.002336 342.234741
[R_Toe2_03]
1 420.210846 0.000715 -0.000268 -179.984009 85.375511 -179.987503 420.210846
2 420.210846 0.000715 -0.000268 -179.990326 81.688683 -179.993820 420.210846
3 420.210846 0.000715 -0.000268 -179.993958 74.566307 -179.997482 420.210846
[R_Toe3_02]
1 329.270355 -0.000477 -0.000954 0.001179 -79.338387 0.001179 329.270355
2 329.270355 -0.000477 -0.000954 0.001178 -80.150345 0.001178 329.270355
3 329.270355 -0.000477 -0.000954 0.001177 -81.501373 0.001177 329.270355
[R_Toe3_03]
1 439.137939 0.000238 0.001431 -179.992615 82.785011 -179.989120 439.137939
2 439.137939 0.000238 0.001431 -179.995300 79.799614 -179.991791 439.137939
3 439.137939 0.000238 0.001431 -179.997604 74.156609 -179.994064 439.137939
[Rear_Leg02]
1 1162.777710 -0.029802 0.005960 26.672678 -17.087589 -103.887146 1162.777710
2 1162.777710 -0.029802 0.005960 27.929564 -8.653975 -115.923622 1162.777710
3 1162.777710 -0.029802 0.005960 22.817032 -2.176188 -124.451897 1162.777710
[Rear_Leg03]
1 607.192505 -0.013351 -0.073195 0.010037 -0.005951 77.688393 607.192505
2 607.192505 -0.013351 -0.073195 0.009900 -0.006177 80.277534 607.192505
3 607.192505 -0.013351 -0.073195 0.009847 -0.006260 81.244919 607.192505
[Rear_Leg04]
1 995.874512 -0.020504 -0.011921 -0.043436 -0.016674 92.157310 995.874573
2 995.874512 -0.020504 -0.011921 -0.044935 -0.012065 104.097496 995.874573
3 995.874512 -0.020504 -0.011921 -0.043026 -0.012596 113.184021 995.874573
[Rear_Foot]
1 3096.176270 -0.067472 -0.041425 -102.527328 64.263504 12.146406 3096.176270
2 3096.176270 -0.067472 -0.041425 -84.338661 67.594063 31.083784 3096.176270
3 3096.176270 -0.067472 -0.041425 -74.039070 70.661316 49.407528 3096.176270
[planeAlignerCenter]
1 -0.642700 245.740356 -761.674561 0.001660 -0.001660 179.998337 800.335449
2 0.299835 257.899323 -759.777283 0.001660 -0.001660 179.998337 802.355103
3 1.150284 282.587067 -758.107544 0.001660 -0.001660 179.998337 809.063538
[Rear_Toe1_01]
1 0.653352 83.966492 -371.173737 0.093136 39.624004 90.045242 380.553192
2 0.653352 83.966492 -371.173737 0.090431 39.643826 90.044571 380.553192
3 0.653352 83.966492 -371.173737 0.087724 39.663662 90.043892 380.553192
[Rear_Toe2_01]
1 178.200760 -294.826019 -362.060547 62.022511 84.596268 -8.651174 499.765686
2 178.200760 -294.826019 -362.060547 60.746494 84.103683 -9.811383 499.765686
3 178.200760 -294.826019 -362.060547 55.332916 82.809746 -14.921370 499.765686
[Rear_Toe3_01]
1 -153.359680 -308.780914 -362.060852 -63.780083 83.939514 -175.299225 499.952881
2 -153.359680 -308.780914 -362.060852 -62.598289 83.413399 -174.250122 499.952881
3 -153.359680 -308.780914 -362.060852 -57.617332 82.075760 -169.613678 499.952881
[planeLockWeightCenter]
1 0.000000 0.000305 0.000000 -0.011814 -0.004373 -0.000015 0.000305
2 0.000000 0.000305 0.000000 -0.011814 -0.004373 -0.000015 0.000305
3 0.000000 0.000305 0.000000 -0.011814 -0.004373 -0.000015 0.000305
[Rear_Toe1_02]
1 379.707825 0.194073 0.000477 -0.002653 -32.258087 -0.002653 379.707855
2 379.707825 0.194073 0.000477 -0.002649 -32.555855 -0.002649 379.707855
3 379.707825 0.194073 0.000477 -0.002645 -32.853626 -0.002645 379.707855
[Rear_Toe1_03]
1 500.129700 0.165701 0.000119 -179.984314 85.274612 -179.987808 500.129761
2 500.129700 0.165701 0.000119 -179.974319 87.246651 -179.977829 500.129761
3 500.129700 0.165701 0.000119 -0.034159 88.165489 -0.037657 500.129761
[Rear_Toe2_02]
1 340.494507 0.000238 -0.000954 179.998825 -87.330826 179.998825 340.494507
2 340.494507 0.000238 -0.000954 179.998825 -87.495247 179.998825 340.494507
3 340.494507 0.000238 -0.000954 179.998825 -87.659660 179.998825 340.494507
[Rear_Toe2_03]
1 433.103577 0.000000 0.000238 -179.996231 55.338249 -179.999893 433.103546
2 433.103577 0.000000 0.000238 -179.996216 55.684753 -179.999878 433.103546
3 433.103577 0.000000 0.000238 -179.996170 56.873772 -179.999817 433.103546
[Rear_Toe3_02]
1 340.494141 -0.000358 -0.000477 -179.994171 -87.378708 -179.994171 340.494171
2 340.494141 -0.000358 -0.000477 -179.995941 -87.553673 -179.995941 340.494171
3 340.494141 -0.000358 -0.000477 -179.997681 -87.727982 -179.997681 340.494171
[Rear_Toe3_03]
1 433.103577 0.001431 -0.000238 179.992371 55.589695 179.999695 433.103546
2 433.103577 0.001431 -0.000238 179.992325 55.970169 179.999649 433.103546
3 433.103577 0.001431 -0.000238 179.992188 57.239666 179.999481 433.103546
[Back_Bone]
1 1312.175781 -701.934692 0.000954 -2.876992 1.429053 -84.242424 1488.125488
2 1312.175781 -701.934692 0.000954 -3.016175 1.111372 -84.530403 1488.125488
3 1312.175781 -701.934692 0.000954 -3.153744 0.792996 -84.817581 1488.125488
[Head]
1 1406.159424 809.709290 0.001431 6.739795 -3.159832 2.933345 1622.625488
2 1406.159424 809.709290 0.001431 6.729543 -3.285153 2.655321 1622.625488
3 1406.159424 809.709290 0.001431 6.719897 -3.410523 2.377281 1622.625488
[Motor_Bone]
1 1158.364380 -417.834747 0.000477 -2.687934 0.131929 -105.851517 1231.419434
2 1158.364380 -417.834747 0.000477 -5.513655 1.191246 -104.796577 1231.419434
3 1158.364380 -417.834747 0.000477 -3.495545 0.584006 -105.401466 1231.419434
[Ping_Mechanism]
1 1262.705322 -459.653625 36.123810 0.000103 -0.000053 82.120995 1344.251099
2 1257.452759 -457.361420 30.956724 0.000103 -0.000053 82.120995 1338.404053
3 1244.015503 -450.973511 18.302155 0.000103 -0.000053 82.120995 1323.361816
[BN_LookIK]
1 193.241119 1380.371704 -0.002861 0.000000 89.965736 -31.038179 1393.832153
2 193.241119 1380.371704 -0.002861 0.000000 89.965736 -31.038179 1393.832153
3 193.241119 1380.371704 -0.002861 0.000000 89.965736 -31.038179 1393.832153
[bottomMouth]
1 -435.092926 615.759399 -0.000954 -0.000022 0.000016 73.527184 753.966492
2 -435.092926 615.759399 -0.000954 -0.000022 0.000016 73.527184 753.966492
3 -435.092926 615.759399 -0.000954 -0.000022 0.000016 73.527184 753.966492
[L_Mouth01]
1 554.440979 7.658243 838.222046 150.204178 23.759130 109.605339 1005.027161
2 554.440979 7.658243 838.222046 150.204178 23.759130 109.605339 1005.027161
3 554.440979 7.658243 838.222046 150.204178 23.759130 109.605339 1005.027161
[L_mouthFront]
1 551.629089 934.514771 339.150421 0.000081 2.804060 79.119301 1136.941284
2 551.629089 934.514771 339.150421 0.000081 2.804060 79.119301 1136.941284
3 551.629089 934.514771 339.150421 0.000081 2.804060 79.119301 1136.941284
[mouthGun]
1 55.332661 1627.420898 0.000000 0.000023 0.000009 -11.038128 1628.361328
2 55.332661 1627.420898 0.000000 0.000023 0.000009 -11.038128 1628.361328
3 55.332661 1627.420898 0.000000 0.000023 0.000009 -11.038128 1628.361328
[R_Mouth01]
1 554.442383 7.659197 -838.223938 29.795891 -23.759109 109.605331 1005.029541
2 554.442383 7.659197 -838.223938 29.795891 -23.759109 109.605331 1005.029541
3 554.442383 7.659197 -838.223938 29.795891 -23.759109 109.605331 1005.029541
[R_mouthFront]
1 551.629089 934.514282 -339.151367 0.000029 -2.803930 79.119133 1136.941162
2 551.629089 934.514282 -339.151367 0.000029 -2.803930 79.119133 1136.941162
3 551.629089 934.514282 -339.151367 0.000029 -2.803930 79.119133 1136.941162
[TopMouth]
1 461.269867 -56.106091 -0.008583 -0.000059 -0.000268 92.025169 464.669525
2 461.269867 -56.106091 -0.008583 -0.000059 -0.000268 92.025169 464.669525
3 461.269867 -56.106091 -0.008583 -0.000059 -0.000268 92.025169 464.669525
[weapon_bone]
1 -987.239868 1448.372803 0.001431 0.000000 89.965736 -31.038221 1752.833740
2 -987.239868 1448.372803 0.001431 0.000000 89.965736 -31.038221 1752.833740
3 -987.239868 1448.372803 0.001431 0.000000 89.965736 -31.038221 1752.833740
